<svg class="fill-current text-teal" id="a" xmlns="http://www.w3.org/2000/svg" viewBox="0 0 352.69 67.59" width="100%" height="100%">
    <defs>
        <style>.logo-aa{fill:#ff6a39}.logo-aaa{fill:#582c83}</style>
    </defs>
    <path class="logo-aaa" d="M76.04 17.85c-2.96-1.78-6.4-2.67-10.33-2.67s-7.37.89-10.33 2.67c-2.96 1.78-5.28 4.16-6.95 7.15-1.68 2.98-2.51 6.26-2.51 9.82s.84 6.83 2.51 9.82c1.68 2.98 3.99 5.38 6.95 7.19 2.96 1.81 6.4 2.71 10.33 2.71s7.37-.9 10.33-2.71 5.27-4.2 6.95-7.19c1.68-2.98 2.51-6.26 2.51-9.82s-.84-6.83-2.51-9.82a19.221 19.221 0 0 0-6.95-7.15Zm-1.02 22.34c-.76 1.81-1.91 3.31-3.46 4.52-1.55 1.2-3.49 1.81-5.85 1.81s-4.31-.6-5.85-1.81c-1.55-1.2-2.7-2.71-3.46-4.52-.76-1.81-1.14-3.6-1.14-5.38s.38-3.56 1.14-5.34c.76-1.78 1.91-3.27 3.46-4.48 1.54-1.2 3.49-1.81 5.85-1.81s4.31.6 5.85 1.81c1.54 1.2 2.7 2.7 3.46 4.48.76 1.78 1.14 3.56 1.14 5.34s-.38 3.57-1.14 5.38ZM134.83 14.77c-2.57 0-4.84.41-6.83 1.22-1.99.81-3.93 2.19-5.81 4.12-2.51-3.56-6.2-5.34-11.07-5.34-2.88 0-5.16.55-6.83 1.65-1.68 1.1-2.96 2.2-3.85 3.3l-.17-3.05v-.03c0-.07 0-.12-.02-.17-.08-.51-.51-.91-1.05-.91h-6.84c-.57.02-1.03.48-1.04 1.05v35.64c.03.57.49 1.02 1.06 1.02h7.14c.58 0 1.06-.47 1.06-1.05v-18.9c0-2.72.77-5.91 2.32-7.79 1.54-1.88 3.6-2.83 6.17-2.83 2.04 0 3.65.66 4.83 1.96 1.18 1.31 1.77 3.12 1.77 5.42V52c-.01.06-.02.12-.02.18 0 .08 0 .15.02.21.09.49.52.87 1.04.87h7.14c.59 0 1.06-.48 1.07-1.06h.01V33.31c0-2.72.77-5.91 2.32-7.79 1.54-1.88 3.6-2.83 6.17-2.83 2.04 0 3.65.66 4.83 1.96 1.18 1.31 1.77 3.12 1.77 5.42v22.18c.03.56.49 1 1.06 1h7.14c.59 0 1.06-.48 1.07-1.06V30.01c0-4.66-1.24-8.37-3.73-11.11-2.49-2.75-6.06-4.12-10.72-4.12ZM215.41 46.36c-2.36 0-4.31-.58-5.85-1.73-1.55-1.15-2.7-2.62-3.46-4.4-.76-1.78-1.14-3.59-1.14-5.42 0-1.99.38-3.86 1.14-5.62.76-1.75 1.91-3.18 3.46-4.28 1.54-1.1 3.5-1.65 5.85-1.65 1.83 0 3.47.34 4.91 1.02 1.1.52 2.07 1.2 2.92 2.03h.01c.41.42 1.06.42 1.48.03 0 0 .02-.01.03-.02s.02-.02.03-.04l4.29-4.34.03-.03h.01s.03-.04.04-.06c.37-.42.36-1.06-.04-1.46-1.58-1.49-3.42-2.69-5.54-3.62-2.46-1.07-5.18-1.61-8.17-1.61-3.93 0-7.37.89-10.33 2.67-2.96 1.78-5.28 4.16-6.95 7.15-1.68 2.98-2.51 6.26-2.51 9.82 0 3.88.77 7.29 2.32 10.25 1.54 2.96 3.8 5.26 6.75 6.91 2.96 1.65 6.53 2.47 10.72 2.47 3.09 0 5.82-.55 8.21-1.65 2.03-.94 3.81-2.14 5.37-3.6.02-.02.05-.04.07-.06h.01s.02-.03.03-.04c.37-.4.37-1 .03-1.41-.02-.02-.03-.05-.05-.07s-.02-.02-.03-.02l-3.9-4.24s-.05-.07-.09-.11-.03-.04-.05-.05c-.42-.37-1.06-.36-1.46.04-.86.83-1.88 1.52-3.06 2.06-1.55.71-3.23 1.06-5.07 1.06M243.68 1.97v-.06c-.01-.56-.45-1-1-1.03H235.42c-.56.03-1 .49-1.01 1.05v50.28c0 .59.48 1.06 1.06 1.06h7.14c.57 0 1.03-.45 1.06-1.01V1.97ZM39.2 1.98c.01-.06.02-.13.02-.2 0-.09 0-.16-.02-.23-.09-.46-.48-.8-.96-.84h-7.3c-.55.05-.98.5-.98 1.06h-.02v13.85L9.25 29.32V1.89l.01-.13c0-.04 0-.08-.01-.13-.06-.5-.46-.89-.97-.93H.98C.44.75.02 1.19 0 1.73v50.46c0 .6.48 1.08 1.06 1.08h7.13c.58 0 1.06-.47 1.06-1.05V40.15l20.78-13.76V52.2c0 .15.05.27.1.38.15.4.54.69.99.69h7.02c.51 0 .94-.36 1.04-.84.02-.07.02-.15.02-.22 0-.08 0-.15-.02-.23v-50ZM259.87 15.18H252.67c-.57.02-1.03.49-1.03 1.06v35.78c-.01.06-.02.12-.02.18 0 .08 0 .14.02.21.09.5.52.87 1.05.88h7.14c.59 0 1.06-.48 1.07-1.06h.01V16.24c0-.58-.46-1.04-1.03-1.06Z"></path>
    <ellipse class="logo-aaa" cx="256.26" cy="5.2" rx="5.53" ry="5.2"></ellipse>
    <path class="logo-aaa" d="M190.77 47.09s-.02-.01-.02-.02l-3.62-4.08h-.01v-.02h-.02a1.06 1.06 0 0 0-1.5 0c-.34.27-.73.57-1.2.91-.94.68-2.2 1.3-3.77 1.85-1.57.55-3.56.82-5.97.82-1.62 0-3.22-.38-4.79-1.14-.49-.24-.95-.5-1.38-.79l1.12-.75 8.94-5.94.51-.34 5.11-3.39 6.44-4.28c.14-.11.25-.24.33-.4a1.09 1.09 0 0 0 .13-.52c0-.07 0-.14-.02-.2v-.03c0-.02-.01-.03-.01-.05-.01-.06-.03-.12-.04-.17-.63-2.51-1.65-4.78-3.06-6.79-1.41-2.02-3.27-3.63-5.58-4.83-2.3-1.2-5.16-1.81-8.56-1.81-3.67 0-6.9.85-9.7 2.55-2.8 1.7-5 4.01-6.6 6.91-1.6 2.91-2.4 6.16-2.4 9.78 0 3.93.81 7.41 2.43 10.45 1.62 3.04 3.89 5.41 6.79 7.11 2.91 1.7 6.32 2.55 10.25 2.55 2.88 0 5.35-.3 7.42-.9 2.07-.6 3.77-1.31 5.11-2.12 1.34-.81 2.36-1.57 3.06-2.28l.48-.48c.04-.03.07-.05.11-.09h.01l.1-.13c.29-.39.28-.92-.02-1.3-.02-.03-.05-.06-.08-.09Zm-26.3-8.81-.29.19c-.66-1.43-1.02-3.04-1.02-4.73 0-6.06 4.71-10.98 10.51-10.98 3.27 0 6.2 1.56 8.12 4.01l-.42.28-5.82 3.86-10.05 6.68-1.03.69ZM285.77 34.18l17.06-17.06c.33-.33.43-.84.25-1.28s-.61-.72-1.08-.72h-9.33c-.31 0-.61.12-.83.34l-13.77 13.77V1.92c-.02-.57-.49-1.03-1.06-1.03h-7.14c-.58 0-1.05.47-1.06 1.04V52.25c.03.57.49 1.02 1.06 1.02h7.14c.59 0 1.06-.47 1.07-1.06V39.13l13.77 13.77c.22.22.52.34.83.34h9.33c.47 0 .9-.29 1.08-.72s.08-.94-.25-1.28l-17.06-17.06Z"></path>
    <circle class="logo-aa" cx="313" cy="34.12" r="7.6"></circle>
    <path class="logo-aa" d="m352.33 33.33-32.19-32.2a1.22 1.22 0 0 0-.86-.36h-9.49c-.49 0-.94.3-1.13.75-.19.46-.08.98.26 1.33l31.33 31.33-31.31 31.31c-.35.35-.45.88-.26 1.33.19.46.63.75 1.13.75h9.49c.32 0 .64-.13.86-.36l32.17-32.17c.48-.48.48-1.25 0-1.73Z"></path>
</svg>